<?xml version="1.0" encoding="utf-8"?>
<!-- Generator: Adobe Illustrator 26.0.3, SVG Export Plug-In . SVG Version: 6.00 Build 0)  -->
<svg version="1.0" id="katman_1" xmlns="http://www.w3.org/2000/svg" xmlns:xlink="http://www.w3.org/1999/xlink" x="0px" y="0px"
	 viewBox="0 0 600 450" style="enable-background:new 0 0 600 450;" xml:space="preserve">
<style type="text/css">
	.st0{fill:url(#SVGID_1_);}
	.st1{fill:url(#SVGID_00000029768141937850048670000017503407848790511241_);}
	.st2{fill:url(#SVGID_00000157293990669789872030000002083614699649757605_);}
	.st3{fill:url(#SVGID_00000161632770951660469970000008819827312621337497_);fill-opacity:0.56;}
	.st4{fill:url(#SVGID_00000013908943161827616120000011634063394638274946_);fill-opacity:0.56;}
	.st5{fill:url(#SVGID_00000146494856773700127060000007179614238417534891_);fill-opacity:0.96;}
	.st6{fill:url(#SVGID_00000046298593329174749830000016912505118807748752_);fill-opacity:0.46;}
	.st7{fill:url(#SVGID_00000013174186683071145250000008176006409957625524_);fill-opacity:0.8;}
	.st8{fill:url(#SVGID_00000178889655182963811280000014037773873663527338_);fill-opacity:0.8;}
	.st9{fill:url(#SVGID_00000173861985161410219680000001087241337571401624_);fill-opacity:0.5;}
	.st10{fill:url(#SVGID_00000140001545083945993170000012671136018622398127_);fill-opacity:0.75;}
	.st11{fill:none;stroke:url(#SVGID_00000017491875568321351140000009792885759214423739_);stroke-width:5.6706;}
	.st12{fill:#FFFFFF;}
	.st13{fill:#B5CD16;}
</style>
<radialGradient id="SVGID_1_" cx="2.0743" cy="453.8895" r="1.8902" gradientTransform="matrix(8.074219e-15 131.862 132.195 -8.094610e-15 -59582.6875 -178.1783)" gradientUnits="userSpaceOnUse">
	<stop  offset="0.1531" style="stop-color:#66B32E"/>
	<stop  offset="0.3626" style="stop-color:#61B22F"/>
	<stop  offset="0.869" style="stop-color:#46AF5C"/>
	<stop  offset="1" style="stop-color:#34AE72"/>
</radialGradient>
<path class="st0" d="M299.7,52c96,0,173.8,77.7,173.8,173.4c0,95.8-77.9,173.4-173.8,173.4c-96,0-173.8-77.7-173.8-173.4
	C125.9,129.6,203.8,52,299.7,52z"/>
<radialGradient id="SVGID_00000102523203668131932450000004954321462510799269_" cx="1.1397" cy="448.335" r="1.8902" gradientTransform="matrix(97.5922 -84.0579 -91.8801 -106.6739 41238.875 48294.6758)" gradientUnits="userSpaceOnUse">
	<stop  offset="0.2448" style="stop-color:#63318A"/>
	<stop  offset="1" style="stop-color:#2F358B;stop-opacity:0"/>
</radialGradient>
<path style="fill:url(#SVGID_00000102523203668131932450000004954321462510799269_);" d="M299.7,398.8c-96.2,0-174.1-77.9-174-173.9
	v-7.4c0.1-49.6,40.4-89.7,90.1-89.7h167.7c49.7,0,90,40.2,90.1,89.8v7.4C473.7,321,395.9,398.8,299.7,398.8z"/>
<radialGradient id="SVGID_00000180331336956999087600000015066292607876969150_" cx="6.3905" cy="450.2982" r="1.8902" gradientTransform="matrix(55.0516 0 0 -203.092 -113.5207 91549.1406)" gradientUnits="userSpaceOnUse">
	<stop  offset="0" style="stop-color:#FCBE33"/>
	<stop  offset="1" style="stop-color:#37AE73;stop-opacity:0"/>
</radialGradient>
<path style="fill:url(#SVGID_00000180331336956999087600000015066292607876969150_);" d="M125.9,229.7
	C125.6,131.7,205.3,52,303.5,52h6.3c50.8,0,44.1,41,44.1,91.7v22.5c0,50.7-41.1,91.7-91.9,91.7h-44.3
	C167,257.9,125.9,280.3,125.9,229.7z"/>
<radialGradient id="SVGID_00000044175574463475042860000007813456244599481472_" cx="5.3011" cy="457.9002" r="1.8899" gradientTransform="matrix(2.543346e-15 41.536 41.6408 -2.549764e-15 -18849.0859 -46.3047)" gradientUnits="userSpaceOnUse">
	<stop  offset="0.3646" style="stop-color:#E52826"/>
	<stop  offset="1" style="stop-color:#2F358B;stop-opacity:0"/>
</radialGradient>
<path style="fill:url(#SVGID_00000044175574463475042860000007813456244599481472_);fill-opacity:0.56;" d="M218.2,257.9
	c45,0,81.4-36.4,81.4-81.2c0-44.9-36.5-81.2-81.4-81.2c-45,0-81.4,36.4-81.4,81.2C136.8,221.5,173.3,257.9,218.2,257.9z"/>
<radialGradient id="SVGID_00000119800407103719328020000001873726280240488639_" cx="5.6536" cy="461.2259" r="1.8896" gradientTransform="matrix(2.104635e-15 34.3713 34.458 -2.109944e-15 -15536.6035 -60.1428)" gradientUnits="userSpaceOnUse">
	<stop  offset="0.1354" style="stop-color:#EAE219"/>
	<stop  offset="0.9375" style="stop-color:#ADCA0D;stop-opacity:0"/>
</radialGradient>
<path style="fill:url(#SVGID_00000119800407103719328020000001873726280240488639_);fill-opacity:0.56;" d="M356.3,203.7
	c37.3,0,67.5-30.1,67.5-67.3s-30.2-67.3-67.5-67.3c-37.3,0-67.5,30.1-67.5,67.3S319.1,203.7,356.3,203.7z"/>
<radialGradient id="SVGID_00000016791470111558979930000015055125139625214617_" cx="5.3763" cy="454.7713" r="1.8902" gradientTransform="matrix(2.882463e-15 47.0742 69.4013 -4.249604e-15 -31397.791 -21.1033)" gradientUnits="userSpaceOnUse">
	<stop  offset="0" style="stop-color:#7C59A1"/>
	<stop  offset="1" style="stop-color:#7B4896;stop-opacity:0"/>
</radialGradient>
<path style="fill:url(#SVGID_00000016791470111558979930000015055125139625214617_);fill-opacity:0.96;" d="M299.7,235.1
	c0,50.8-60.8,92.1-135.8,92.1c-5.4,0-38.1-41.2-38.1-92.1c0-50.8,10.8-92.1,38.1-92.1C238.9,143,299.7,184.2,299.7,235.1z"/>
<radialGradient id="SVGID_00000073683084334679678250000003949686788176511617_" cx="5.3206" cy="456.8941" r="1.8902" gradientTransform="matrix(3.964837e-15 64.7507 54.6563 -3.346733e-15 -24679.9316 44.0645)" gradientUnits="userSpaceOnUse">
	<stop  offset="0" style="stop-color:#4A9DD7"/>
	<stop  offset="0.776" style="stop-color:#6CBE9C;stop-opacity:0"/>
</radialGradient>
<path style="fill:url(#SVGID_00000073683084334679678250000003949686788176511617_);fill-opacity:0.46;" d="M408.4,351.7
	c0,15.3-42.7,47-116.3,47c-49.9,0-111.9-38.1-111.9-53.4c0-112.2,62-120,111.9-120C342.1,225.4,408.4,265,408.4,351.7z"/>
<linearGradient id="SVGID_00000037651948316506215020000010831038654097901709_" gradientUnits="userSpaceOnUse" x1="420.6351" y1="257.6991" x2="420.6351" y2="125.3343" gradientTransform="matrix(1 0 0 -1 -120.9449 379.3622)">
	<stop  offset="0" style="stop-color:#F6E826"/>
	<stop  offset="1" style="stop-color:#BBD032;stop-opacity:0"/>
</linearGradient>
<path style="fill:url(#SVGID_00000037651948316506215020000010831038654097901709_);fill-opacity:0.8;" d="M125.9,225.4
	c0-95.8,77.9-173.4,173.8-173.4c96,0,173.8,77.7,173.8,173.4v21.7H125.9V225.4z"/>
<radialGradient id="SVGID_00000047037971076756858900000007240241108768818355_" cx="-0.8819" cy="459.8725" r="1.8902" gradientTransform="matrix(-27.4409 27.372 27.3719 27.4407 -12378.2705 -12392.9688)" gradientUnits="userSpaceOnUse">
	<stop  offset="0" style="stop-color:#974D98"/>
	<stop  offset="0.8021" style="stop-color:#974D98;stop-opacity:0"/>
</radialGradient>
<path style="fill:url(#SVGID_00000047037971076756858900000007240241108768818355_);fill-opacity:0.8;" d="M321,231.2
	c0,44.6-36.3,80.8-81,80.8c-44.7,0-81-36.2-81-80.8c0-44.6,36.3-80.8,81-80.8C284.7,150.4,321,186.6,321,231.2z"/>
<radialGradient id="SVGID_00000005969191586081287740000015273190283223794622_" cx="-0.7091" cy="461.8656" r="1.8902" gradientTransform="matrix(-23.91 23.85 23.8499 23.9099 -10787.2002 -10766.6211)" gradientUnits="userSpaceOnUse">
	<stop  offset="0.1042" style="stop-color:#974D98"/>
	<stop  offset="1" style="stop-color:#974D98;stop-opacity:0"/>
</radialGradient>
<path style="fill:url(#SVGID_00000005969191586081287740000015273190283223794622_);fill-opacity:0.5;" d="M321.4,284.9
	c0,38.9-31.6,70.4-70.6,70.4c-39,0-70.6-31.6-70.6-70.4s31.6-70.4,70.6-70.4C289.9,214.5,321.4,246.1,321.4,284.9z"/>
<radialGradient id="SVGID_00000054970200255631854190000015053107230475702679_" cx="6.0369" cy="456.5049" r="1.8902" gradientTransform="matrix(2.8738 31.5323 54.6 -4.9762 -24665.4004 2154.9229)" gradientUnits="userSpaceOnUse">
	<stop  offset="4.593390e-02" style="stop-color:#F0E529"/>
	<stop  offset="1" style="stop-color:#F1C115;stop-opacity:0"/>
</radialGradient>
<path style="fill:url(#SVGID_00000054970200255631854190000015053107230475702679_);fill-opacity:0.75;" d="M298.9,171.2
	c57,0,103.2-26.7,103.2-59.6c0-32.9-46.2-59.6-103.2-59.6c-57,0-103.2,26.7-103.2,59.6C195.7,144.5,241.9,171.2,298.9,171.2z"/>
<linearGradient id="SVGID_00000010308278493066429350000004878216524601135787_" gradientUnits="userSpaceOnUse" x1="330.0831" y1="312.6874" x2="502.0903" y2="11.2007" gradientTransform="matrix(1 0 0 -1 -120.9449 379.3622)">
	<stop  offset="0" style="stop-color:#FFFFFF"/>
	<stop  offset="1" style="stop-color:#FFFFFF;stop-opacity:0"/>
</linearGradient>
<path style="fill:none;stroke:url(#SVGID_00000010308278493066429350000004878216524601135787_);stroke-width:5.6706;" d="M299.7,52
	c96,0,173.8,77.7,173.8,173.4c0,95.8-77.9,173.4-173.8,173.4c-96,0-173.8-77.7-173.8-173.4C125.9,129.6,203.8,52,299.7,52z"/>
<path class="st12" d="M415.4,206.5c-0.9-36.7-31.5-66.3-69.1-66.3c-18.5,0-35.2,7.1-47.6,18.8c-12.3-11.6-29-18.8-47.4-18.8
	c-37.6,0-68.2,29.8-69.1,67v0.2v0.2c0,28.3,10.5,53.5,20.1,70.8c4.8,8.8,9.7,15.9,13.4,20.9c1.8,2.5,3.4,4.5,4.6,5.9
	c0.6,0.7,1.1,1.2,1.4,1.7c0.2,0.2,0.3,0.3,0.4,0.5c0.1,0.1,0.1,0.1,0.2,0.2l0.1,0.1l0.1,0.1c8,9.1,22,10.1,31.2,2.1
	c9.2-8,10.1-21.8,2.2-31c0,0,0,0,0-0.1s-0.1-0.1-0.2-0.2c-0.2-0.2-0.4-0.5-0.8-1c-0.7-0.9-1.9-2.3-3.2-4.3
	c-2.8-3.8-6.6-9.4-10.3-16.3c-7.7-13.9-14.5-31.4-14.6-49.3c0.5-13.3,11.5-23.9,24.9-23.9c13.6,0,24.6,10.7,24.9,24.2
	c0.1,3.4,1,6.6,2.4,9.5c3.2,8.2,11.2,14.1,20.7,14.1c12.2,0,22.1-9.7,22.1-21.8V207c0.5-13.1,11.5-23.6,24.9-23.6
	s24.4,10.5,24.9,23.6c-0.1,14.3-4.7,28.4-10,39.5c-2.6,5.5-5.2,9.9-7,13c-0.9,1.5-1.8,2.7-2.2,3.4c-0.2,0.3-0.4,0.6-0.5,0.7
	c-0.1,0.1-0.1,0.1-0.1,0.1c-0.1,0.1-0.2,0.3-0.2,0.3c4.1-5,10.2-8.1,17.3-8.1c12.2,0,22.1,9.7,22.1,21.7c0,4.3-1.3,8.3-3.6,11.8
	c0.1,0.1,0.1,0.1,0.1,0.1v-0.1l0.1-0.1c0.1-0.1,0.1-0.1,0.1-0.2c0.1-0.1,0.2-0.2,0.3-0.5c0.2-0.3,0.6-0.8,1-1.4
	c0.8-1.2,1.9-2.8,3.2-5c2.6-4.2,6.1-10.1,9.5-17.4c6.7-14.3,14.1-35,14.1-58.1v-0.2H415.4z"/>
<path class="st13" d="M369.2,255.4c-7,0-13.2,3.2-17.3,8.1c-3,3.7-4.8,8.4-4.8,13.5c0,12,9.9,21.7,22.1,21.7
	c7.2,0,13.5-3.4,17.6-8.6c0.3-0.5,0.7-0.9,1-1.4c2.2-3.4,3.6-7.4,3.6-11.8C391.2,265.1,381.4,255.4,369.2,255.4z"/>
</svg>
